# xmcd
#
# Track frame offsets: 
#        150
#        21465
#        32755
#        43197
#        61222
#        71165
#        82715
#        96390
#        111027
#        122190
#        160642
#        176362
#        186775
#        203595
#        217627
#        235655
#        251535
#        261327
#        275367
#        286850
#        303542
#
# Disc length: 4421 seconds
#
# Revision: 0
# Processed by: cddbd v1.5.1PL0 Copyright (c) Steve Scherf et al.
# Submitted via: ExactAudioCopy v0.95a5
#
DISCID=20114315
DTITLE=Carolina Opry - Christmas Live at the Carolina Opry
DYEAR=1994
DGENRE=Christmas
TTITLE0=O Come, All Ye Faithful
TTITLE1=Sleigh Ride
TTITLE2=Mistletoe And Holly
TTITLE3=Merry Christmas Baby
TTITLE4=No Place Like Home
TTITLE5=Comedy
TTITLE6=Loving Time Of The Year
TTITLE7=White Christmas
TTITLE8=I Met An Angle On Christmas Day
TTITLE9=Dixie Cowboys
TTITLE10=Beautiful Star Of Bethlehem
TTITLE11=Go Tell It On The Mountain
TTITLE12=Baby Jesus Is Born
TTITLE13=The Christmas Song
TTITLE14=Run GMC
TTITLE15=O Holy Night
TTITLE16=We Wish You The Merriest
TTITLE17=Unto You This Night
TTITLE18=Sweet Little Jesus Boy
TTITLE19=First Noel
TTITLE20=He's Alive
EXTD=
EXTT0=
EXTT1=
EXTT2=
EXTT3=
EXTT4=
EXTT5=
EXTT6=
EXTT7=
EXTT8=
EXTT9=
EXTT10=
EXTT11=
EXTT12=
EXTT13=
EXTT14=
EXTT15=
EXTT16=
EXTT17=
EXTT18=
EXTT19=
EXTT20=
PLAYORDER=
